<svg width="120" height="111" viewBox="0 0 120 111" fill="none" xmlns="http://www.w3.org/2000/svg">
<rect width="120" height="111" rx="20" fill="white"/>
<path fill-rule="evenodd" clip-rule="evenodd" d="M12.2396 48C8.97548 48 6.93595 49.6041 6.11956 52.8124C7.34367 51.2082 8.77163 50.6068 10.4034 51.0076C11.3345 51.2362 12.0002 51.9003 12.7365 52.6355C13.9367 53.8326 15.3258 55.2181 18.3592 55.2181C21.6228 55.2181 23.6628 53.614 24.4787 50.4062C23.2551 52.0103 21.8271 52.6117 20.1953 52.2105C19.2638 51.9819 18.598 51.3178 17.8617 50.5831C16.6616 49.385 15.273 48 12.2396 48ZM6.11956 55.2181C2.85592 55.2181 0.815909 56.8222 0 60.0305C1.2241 58.4263 2.65207 57.8249 4.2834 58.2257C5.21491 58.4543 5.88069 59.1184 6.61697 59.8535C7.81709 61.0507 9.20572 62.4362 12.2396 62.4362C15.5032 62.4362 17.5433 60.8325 18.3592 57.6243C17.1351 59.2284 15.7071 59.8298 14.0753 59.429C13.1442 59.1999 12.4785 58.5359 11.7422 57.8012C10.5421 56.604 9.15296 55.2181 6.11956 55.2181Z" fill="#38BDF8"/>
<path fill-rule="evenodd" clip-rule="evenodd" d="M36.3314 53.9258H34.1975V58.1829C34.1975 59.3184 34.9201 59.3005 36.3314 59.2294V60.9503C33.4744 61.3051 32.3387 60.4891 32.3387 58.1829V53.9258H30.7554V52.0807H32.3387V49.6985L34.1975 49.1305V52.0807H36.3314V53.9258ZM44.4654 52.0807H46.3237V60.9503H44.4654V59.6732C43.8113 60.6129 42.7958 61.1809 41.4536 61.1809C39.1132 61.1809 37.1685 59.141 37.1685 56.5153C37.1685 53.8726 39.1132 51.8502 41.4536 51.8502C42.7958 51.8502 43.8113 52.4176 44.4654 53.3404V52.0807ZM41.7464 59.3537C43.2952 59.3537 44.4654 58.165 44.4654 56.5153C44.4654 54.8655 43.2952 53.6773 41.7464 53.6773C40.1976 53.6773 39.0274 54.866 39.0274 56.5153C39.0274 58.165 40.1976 59.3537 41.7464 59.3537ZM49.4213 50.7505C48.7677 50.7505 48.2343 50.183 48.2343 49.5265C48.2358 49.2012 48.3616 48.8898 48.584 48.6604C48.8065 48.431 49.1076 48.3024 49.4213 48.3026C49.7351 48.3022 50.0363 48.4308 50.2588 48.6602C50.4814 48.8896 50.6072 49.2011 50.6088 49.5265C50.6088 50.1825 50.0754 50.7505 49.4213 50.7505ZM48.4921 60.9503V52.0807H50.3509V60.9503H48.4921ZM52.5021 60.9503V48H54.3604V60.9498H52.5021V60.9503ZM66.4244 52.0807H68.3862L65.6845 60.9503H63.8602L62.0703 54.9723L60.2633 60.9503H58.4394L55.7372 52.0807H57.699L59.3686 58.2003L61.1757 52.0807H62.9482L64.7376 58.2003L66.4244 52.0807ZM70.6922 50.7505C70.038 50.7505 69.5047 50.183 69.5047 49.5265C69.5062 49.2011 69.632 48.8896 69.8546 48.6602C70.0772 48.4308 70.3784 48.3022 70.6922 48.3026C71.006 48.3022 71.3071 48.4308 71.5297 48.6602C71.7523 48.8896 71.8781 49.2011 71.8796 49.5265C71.8796 50.1825 71.3463 50.7505 70.6922 50.7505ZM69.763 60.9503V52.0807H71.6213V60.9503H69.763ZM78.2986 51.8502C80.2259 51.8502 81.6027 53.1983 81.6027 55.5045V60.9498H79.7443V55.6993C79.7443 54.3512 78.9872 53.6421 77.817 53.6421C76.595 53.6421 75.6313 54.3869 75.6313 56.1962V60.9503H73.7725V52.0807H75.6313V53.2162C76.1992 52.2939 77.1283 51.8502 78.2986 51.8502ZM90.4138 48.5332H92.2726V60.9498H90.4138V59.6727C89.7601 60.6129 88.7447 61.1804 87.4025 61.1804C85.062 61.1804 83.1174 59.1405 83.1174 56.5148C83.1174 53.8721 85.062 51.8497 87.4025 51.8497C88.7447 51.8497 89.7601 52.4171 90.4138 53.3399V48.5332ZM87.6948 59.3537C89.2436 59.3537 90.4138 58.165 90.4138 56.5153C90.4138 54.8655 89.2436 53.6773 87.6948 53.6773C86.146 53.6773 84.9758 54.866 84.9758 56.5153C84.9758 58.165 86.146 59.3537 87.6948 59.3537ZM98.5022 61.1809C95.9035 61.1809 93.9589 59.141 93.9589 56.5153C93.9589 53.8726 95.9035 51.8502 98.5022 51.8502C100.189 51.8502 101.652 52.7545 102.34 54.1385L100.739 55.0965C100.361 54.2627 99.5177 53.7305 98.485 53.7305C96.9707 53.7305 95.8177 54.9191 95.8177 56.5153C95.8177 58.1119 96.9707 59.3005 98.485 59.3005C99.5177 59.3005 100.361 58.7504 100.774 57.9345L102.374 58.8746C101.652 60.276 100.189 61.1804 98.5022 61.1804V61.1809ZM105.437 54.5286C105.437 56.1431 110.067 55.1671 110.067 58.4493C110.067 60.2233 108.569 61.1809 106.711 61.1809C104.99 61.1809 103.751 60.3823 103.2 59.1052L104.801 58.1476C105.076 58.9457 105.765 59.4247 106.711 59.4247C107.537 59.4247 108.174 59.141 108.174 58.4309C108.174 56.8527 103.544 57.7397 103.544 54.5643C103.544 52.8967 104.938 51.8502 106.694 51.8502C108.105 51.8502 109.275 52.5245 109.878 53.6952L108.312 54.5996C108.001 53.9079 107.399 53.5884 106.694 53.5884C106.022 53.5884 105.437 53.89 105.437 54.5286ZM113.371 54.5286C113.371 56.1431 118 55.1671 118 58.4493C118 60.2233 116.503 61.1809 114.644 61.1809C112.923 61.1809 111.685 60.3823 111.134 59.1052L112.734 58.1476C113.01 58.9457 113.698 59.4247 114.644 59.4247C115.47 59.4247 116.107 59.141 116.107 58.4309C116.107 56.8527 111.478 57.7397 111.478 54.5643C111.478 52.8967 112.872 51.8502 114.627 51.8502C116.038 51.8502 117.208 52.5245 117.811 53.6952L116.245 54.5996C115.935 53.9079 115.333 53.5884 114.627 53.5884C113.956 53.5884 113.371 53.89 113.371 54.5286Z" fill="black"/>
</svg>
