<svg width="96" height="96" viewBox="0 0 96 96" fill="none" xmlns="http://www.w3.org/2000/svg">
<path d="M44.4 48.32C35.08 30.28 42.4 14.4 46.52 8.04004C25.08 8.80004 7.91998 26.36 7.91998 48C7.91998 48.56 7.99998 49.12 7.99998 49.68C10.48 48.6 13.16 48 16 48C22.64 48 28.72 51.32 32.4 56.6C39.08 58.52 44 64.68 44 72C44 78.08 40.52 83.32 35.52 86.04C39.44 87.32 43.64 88.04 47.96 88.04C61.96 88.04 74.28 80.84 81.44 69.96C72 70.88 53.52 66.08 44.4 48.32Z" fill="#1D92D6"/>
<path d="M28 64H27.28C25.6 59.36 21.2 56 16 56C9.36 56 4 61.36 4 68C4 74.64 9.36 80 16 80C18.48 80 25.96 80 28 80C32.4 80 36 76.4 36 72C36 67.6 32.4 64 28 64Z" fill="#1D92D6"/>
</svg>
