<svg xmlns="http://www.w3.org/2000/svg" xmlns:xlink="http://www.w3.org/1999/xlink" width="500" zoomAndPan="magnify" viewBox="0 0 375 374.999991" height="500" preserveAspectRatio="xMidYMid meet" version="1.0"><defs><g/></defs><rect x="-37.5" width="450" fill="#ffffff" y="-37.499999" height="449.999989" fill-opacity="1"/><rect x="-37.5" width="450" fill="#ffffff" y="-37.499999" height="449.999989" fill-opacity="1"/><rect x="-37.5" width="450" fill="#1d92d6" y="-37.499999" height="449.999989" fill-opacity="1"/><g fill="#ffffff" fill-opacity="1"><g transform="translate(71.736842, 342.646594)"><g><path d="M 230 -313.59375 C 231.800781 -311.175781 232.550781 -308.765625 232.25 -306.359375 C 227.4375 -237.972656 224.578125 -186.160156 223.671875 -150.921875 C 222.765625 -120.191406 222.3125 -74.40625 222.3125 -13.5625 C 222.3125 -7.53125 219.300781 -4.515625 213.28125 -4.515625 L 146.40625 -4.515625 C 143.988281 -4.515625 141.875 -5.34375 140.0625 -7 C 138.257812 -8.65625 137.359375 -10.84375 137.359375 -13.5625 L 137.359375 -18.984375 C 138.566406 -19.578125 139.171875 -20.023438 139.171875 -20.328125 L 139.171875 -21.6875 L 137.8125 -21.6875 L 138.265625 -34.34375 L 140.078125 -35.25 C 140.078125 -35.550781 139.847656 -35.847656 139.390625 -36.140625 C 138.941406 -36.441406 138.566406 -36.742188 138.265625 -37.046875 L 143.234375 -131.9375 L 134.65625 -131.046875 L 126.515625 -129.6875 C 124.710938 -129.6875 122.601562 -129.382812 120.1875 -128.78125 C 118.6875 -128.78125 116.429688 -128.476562 113.421875 -127.875 C 105.285156 -125.769531 94.890625 -122.457031 82.234375 -117.9375 L 80.4375 -10.390625 C 80.4375 -4.367188 77.421875 -1.359375 71.390625 -1.359375 L 4.96875 0 C 1.957031 0 -0.375 -0.898438 -2.03125 -2.703125 C -3.6875 -4.515625 -4.515625 -6.925781 -4.515625 -9.9375 L 15.359375 -305 C 15.960938 -310.726562 18.976562 -313.59375 24.40625 -313.59375 L 82.234375 -314.953125 C 85.242188 -314.953125 87.648438 -313.972656 89.453125 -312.015625 C 91.265625 -310.054688 92.023438 -307.867188 91.734375 -305.453125 L 84.5 -197.46875 L 102.125 -197.921875 L 103.03125 -196.5625 C 103.03125 -195.957031 103.78125 -195.65625 105.28125 -195.65625 C 106.1875 -195.65625 106.789062 -196.257812 107.09375 -197.46875 L 104.828125 -197.921875 L 146.859375 -199.71875 L 153.1875 -307.71875 C 153.476562 -313.4375 156.488281 -316.296875 162.21875 -316.296875 L 223.21875 -316.296875 C 225.625 -316.296875 227.882812 -315.394531 230 -313.59375 Z M 81.328125 -295.96875 C 80.734375 -296.570312 79.53125 -297.328125 77.71875 -298.234375 L 69.140625 -299.125 L 68.234375 -299.125 L 64.15625 -298.671875 L 61.453125 -298.671875 C 60.546875 -298.378906 59.039062 -298.234375 56.9375 -298.234375 L 54.21875 -298.234375 C 53.320312 -298.234375 52.875 -298.378906 52.875 -298.671875 L 52.875 -300.03125 L 49.25 -300.03125 C 47.75 -298.53125 46.695312 -297.78125 46.09375 -297.78125 C 45.789062 -298.082031 44.582031 -297.929688 42.46875 -297.328125 C 45.488281 -296.117188 48.050781 -295.515625 50.15625 -295.515625 L 53.3125 -296.421875 L 56.484375 -296.875 C 56.785156 -296.875 57.234375 -296.796875 57.828125 -296.640625 C 58.429688 -296.492188 59.640625 -296.421875 61.453125 -296.421875 L 76.8125 -295.96875 L 78.171875 -295.0625 C 78.472656 -294.757812 79.078125 -294.609375 79.984375 -294.609375 Z M 37.046875 -291.90625 C 37.046875 -292.207031 36.894531 -292.503906 36.59375 -292.796875 C 36.300781 -293.097656 36.003906 -293.25 35.703125 -293.25 C 35.097656 -293.851562 34.796875 -294.304688 34.796875 -294.609375 L 35.25 -295.515625 L 35.25 -296.875 L 32.53125 -296.421875 L 31.171875 -295.96875 L 31.171875 -291.453125 C 31.773438 -290.546875 32.679688 -290.09375 33.890625 -290.09375 Z M 39.3125 -281.515625 L 39.3125 -283.765625 L 37.953125 -283.765625 L 37.953125 -281.515625 Z M 162.21875 -280.15625 C 162.21875 -279.550781 162.820312 -278.644531 164.03125 -277.4375 L 166.28125 -279.25 C 165.675781 -279.851562 165.375 -280.15625 165.375 -280.15625 Z M 189.78125 -276.09375 L 189.78125 -277.890625 L 188.421875 -277.890625 L 188.421875 -276.09375 Z M 181.203125 -270.21875 L 181.203125 -271.109375 L 179.84375 -271.109375 L 179.84375 -270.21875 Z M 178.484375 -261.625 L 178.484375 -263.4375 L 177.578125 -263.4375 L 177.578125 -261.625 Z M 47.4375 -257.109375 L 47 -257.109375 L 46.09375 -256.203125 L 47 -255.75 Z M 72.75 -248.078125 C 72.75 -248.972656 72.296875 -249.570312 71.390625 -249.875 C 70.785156 -250.476562 70.785156 -251.082031 71.390625 -251.6875 C 71.390625 -252.59375 71.238281 -253.195312 70.9375 -253.5 L 69.140625 -253.5 L 66.875 -252.140625 L 66.875 -249.421875 L 71.390625 -247.625 L 72.296875 -247.625 Z M 164.03125 -253.5 L 164.03125 -252.59375 L 167.1875 -252.59375 L 167.1875 -253.5 Z M 166.28125 -246.71875 L 169.90625 -246.71875 L 169.90625 -247.625 L 166.28125 -247.625 Z M 188.421875 -223.21875 C 188.421875 -222.613281 189.023438 -222.007812 190.234375 -221.40625 C 192.035156 -220.207031 192.9375 -219.609375 192.9375 -219.609375 L 190.6875 -221.859375 Z M 115.21875 -192.484375 C 114.019531 -193.691406 112.816406 -194.296875 111.609375 -194.296875 C 111.304688 -193.992188 111.003906 -193.84375 110.703125 -193.84375 L 110.703125 -192.9375 C 110.703125 -192.632812 111.15625 -192.1875 112.0625 -191.59375 C 113.863281 -190.6875 114.617188 -190.382812 114.328125 -190.6875 L 114.765625 -191.59375 Z M 126.515625 -190.6875 L 127.421875 -190.6875 L 126.515625 -191.59375 L 125.609375 -191.140625 Z M 103.46875 -185.265625 C 105.28125 -184.660156 106.640625 -185.257812 107.546875 -187.0625 L 104.828125 -187.0625 C 103.921875 -186.769531 103.46875 -186.171875 103.46875 -185.265625 Z M 117.484375 -184.8125 C 118.085938 -184.507812 118.6875 -184.128906 119.28125 -183.671875 C 119.882812 -183.222656 120.488281 -183 121.09375 -183 L 122.453125 -184.359375 L 122 -185.265625 L 121.546875 -185.71875 L 117.9375 -185.71875 L 117.9375 -185.265625 Z M 112.515625 -178.03125 C 114.316406 -179.84375 115.21875 -180.898438 115.21875 -181.203125 L 114.765625 -182.546875 C 114.472656 -182.546875 114.328125 -182.695312 114.328125 -183 L 111.15625 -182.09375 C 110.550781 -182.09375 110.171875 -181.941406 110.015625 -181.640625 C 109.867188 -181.347656 109.867188 -180.972656 110.015625 -180.515625 C 110.171875 -180.066406 110.25 -179.691406 110.25 -179.390625 L 111.609375 -177.125 C 111.609375 -177.125 111.910156 -177.425781 112.515625 -178.03125 Z M 104.375 -182.09375 L 104.375 -181.203125 L 106.640625 -181.203125 L 106.640625 -182.09375 Z M 142.328125 -178.03125 C 143.835938 -179.539062 145.195312 -180.597656 146.40625 -181.203125 C 145.195312 -181.203125 144.59375 -181.347656 144.59375 -181.640625 C 143.6875 -180.742188 142.785156 -180.296875 141.890625 -180.296875 C 140.984375 -180.296875 140.078125 -180.742188 139.171875 -181.640625 C 138.867188 -181.347656 138.191406 -180.820312 137.140625 -180.0625 C 136.085938 -179.3125 135.5625 -178.785156 135.5625 -178.484375 C 135.5625 -177.273438 135.863281 -176.519531 136.46875 -176.21875 C 140.082031 -176.519531 142.035156 -177.125 142.328125 -178.03125 Z M 153.1875 -179.390625 C 153.1875 -179.085938 153.257812 -178.859375 153.40625 -178.703125 C 153.550781 -178.554688 153.625 -178.484375 153.625 -178.484375 C 153.625 -178.484375 153.695312 -178.40625 153.84375 -178.25 C 154 -178.101562 154.078125 -178.03125 154.078125 -178.03125 L 155.4375 -179.390625 Z M 104.375 -176.671875 C 104.375 -177.273438 104.523438 -177.578125 104.828125 -177.578125 L 104.375 -178.484375 L 103.46875 -178.03125 L 103.03125 -178.03125 Z M 138.265625 -166.734375 C 137.066406 -168.546875 135.5625 -169.453125 133.75 -169.453125 L 132.84375 -169.453125 C 132.84375 -169.148438 132.539062 -169 131.9375 -169 C 131.039062 -169 130.140625 -169.445312 129.234375 -170.34375 C 130.734375 -171.25 132.085938 -171.703125 133.296875 -171.703125 C 134.503906 -171.703125 135.257812 -171.101562 135.5625 -169.90625 C 135.5625 -170.5 135.859375 -171.25 136.453125 -172.15625 C 137.054688 -173.0625 137.660156 -173.664062 138.265625 -173.96875 L 135.5625 -173.96875 L 134.65625 -173.515625 C 133.445312 -173.515625 132.46875 -173.816406 131.71875 -174.421875 C 130.96875 -175.023438 130.59375 -175.625 130.59375 -176.21875 C 130.59375 -174.414062 129.535156 -173.515625 127.421875 -173.515625 L 127.421875 -173.96875 L 125.171875 -173.96875 C 124.867188 -173.96875 124.414062 -173.664062 123.8125 -173.0625 L 123.359375 -173.0625 L 122.90625 -172.609375 C 121.394531 -172.609375 120.640625 -172.003906 120.640625 -170.796875 L 123.359375 -170.34375 C 123.960938 -169.144531 125.164062 -168.242188 126.96875 -167.640625 C 128.175781 -167.335938 129.984375 -166.429688 132.390625 -164.921875 L 138.265625 -164.921875 Z M 144.59375 -175.765625 L 147.3125 -174.875 L 147.3125 -175.328125 L 145.5 -176.21875 Z M 102.578125 -171.703125 C 101.972656 -171.703125 101.671875 -171.398438 101.671875 -170.796875 L 103.921875 -170.796875 Z M 151.828125 -168.546875 C 151.523438 -169.453125 150.617188 -169.90625 149.109375 -169.90625 L 148.203125 -168.546875 Z M 165.828125 -166.734375 C 167.035156 -166.734375 167.941406 -166.882812 168.546875 -167.1875 C 169.148438 -167.1875 169.601562 -167.335938 169.90625 -167.640625 L 170.796875 -168.09375 L 169.90625 -169 C 169.300781 -169 168.847656 -169.148438 168.546875 -169.453125 L 167.1875 -169.453125 C 166.882812 -169.453125 166.429688 -169.523438 165.828125 -169.671875 C 165.222656 -169.828125 164.320312 -169.90625 163.125 -169.90625 L 162.21875 -167.640625 L 164.03125 -166.734375 Z M 107.09375 -165.828125 L 107.09375 -164.484375 L 108 -164.484375 L 108 -165.828125 Z M 152.734375 -164.484375 L 150.46875 -164.484375 L 150.46875 -163.578125 L 152.734375 -163.578125 Z M 129.6875 -162.21875 L 129.6875 -160.859375 L 130.59375 -160.859375 L 130.59375 -162.21875 Z M 140.984375 -153.625 C 141.878906 -154.53125 142.476562 -154.984375 142.78125 -154.984375 L 139.625 -154.984375 L 136.015625 -155.890625 L 135.5625 -153.625 C 135.5625 -153.625 135.632812 -153.550781 135.78125 -153.40625 C 135.9375 -153.257812 136.015625 -153.1875 136.015625 -153.1875 L 136.90625 -152.734375 L 138.71875 -152.28125 C 139.320312 -152.28125 140.078125 -152.726562 140.984375 -153.625 Z M 151.375 -152.734375 L 151.375 -154.984375 L 147.3125 -154.984375 L 146.40625 -153.625 C 147.601562 -153.03125 148.203125 -152.734375 148.203125 -152.734375 L 150.015625 -152.28125 Z M 181.203125 -148.203125 L 182.546875 -149.5625 C 182.242188 -149.5625 181.796875 -150.015625 181.203125 -150.921875 L 176.671875 -150.921875 L 176.21875 -150.46875 L 176.21875 -148.65625 Z M 190.6875 -142.78125 C 190.6875 -142.78125 190.835938 -142.703125 191.140625 -142.546875 C 191.441406 -142.398438 192.191406 -142.929688 193.390625 -144.140625 L 192.484375 -144.59375 L 192.046875 -145.5 C 190.835938 -145.5 190.234375 -145.046875 190.234375 -144.140625 C 190.234375 -143.234375 190.382812 -142.78125 190.6875 -142.78125 Z M 160.40625 -144.140625 C 160.101562 -144.441406 159.351562 -144.59375 158.15625 -144.59375 L 159.046875 -142.328125 C 159.648438 -142.628906 159.953125 -142.929688 159.953125 -143.234375 C 159.953125 -143.535156 160.101562 -143.835938 160.40625 -144.140625 Z M 212.828125 -140.078125 L 212.828125 -131.9375 C 212.828125 -131.34375 213.203125 -130.894531 213.953125 -130.59375 C 214.703125 -130.289062 215.378906 -130.289062 215.984375 -130.59375 L 215.984375 -140.078125 Z M 177.125 -128.328125 L 178.03125 -128.328125 L 178.484375 -130.140625 L 177.578125 -130.140625 Z M 57.84375 -125.609375 L 60.546875 -125.171875 L 60.546875 -125.609375 L 60.09375 -126.0625 L 60.09375 -126.515625 C 59.1875 -126.210938 57.984375 -126.0625 56.484375 -126.0625 L 54.21875 -126.0625 Z M 62.8125 -122.90625 C 64.613281 -122.90625 65.816406 -123.207031 66.421875 -123.8125 L 66.421875 -125.171875 C 66.117188 -125.460938 65.363281 -125.609375 64.15625 -125.609375 L 63.265625 -125.171875 L 62.8125 -124.71875 L 61.90625 -124.71875 L 61.90625 -122.90625 Z M 37.953125 -122 C 38.554688 -121.394531 39.160156 -120.492188 39.765625 -119.296875 C 40.367188 -118.691406 40.742188 -118.160156 40.890625 -117.703125 C 41.046875 -117.253906 41.273438 -116.878906 41.578125 -116.578125 C 42.171875 -116.578125 42.617188 -116.726562 42.921875 -117.03125 L 45.1875 -118.390625 C 46.394531 -119.296875 47 -120.195312 47 -121.09375 C 47 -122 46.695312 -122.601562 46.09375 -122.90625 C 45.789062 -122.90625 45.5625 -123.054688 45.40625 -123.359375 C 45.257812 -123.660156 45.1875 -123.8125 45.1875 -123.8125 Z M 69.140625 -119.75 L 67.78125 -120.1875 L 67.328125 -120.1875 L 68.234375 -119.296875 Z M 173.0625 -108.890625 C 173.0625 -109.191406 172.757812 -109.644531 172.15625 -110.25 L 170.796875 -111.15625 L 168.546875 -111.15625 L 169.453125 -108.453125 L 171.703125 -108.453125 L 172.15625 -108.890625 Z M 68.234375 -106.640625 L 68.234375 -105.28125 L 70.484375 -105.28125 L 71.84375 -106.640625 Z M 178.484375 -95.796875 L 178.484375 -97.15625 L 177.578125 -98.953125 L 176.21875 -98.953125 L 176.21875 -95.796875 Z M 62.359375 -97.15625 C 60.546875 -95.945312 59.488281 -94.890625 59.1875 -93.984375 L 61.453125 -93.984375 L 64.609375 -95.796875 C 64.609375 -96.097656 64.382812 -96.398438 63.9375 -96.703125 C 63.488281 -97.003906 62.960938 -97.15625 62.359375 -97.15625 Z M 149.109375 -93.078125 C 149.710938 -93.078125 150.015625 -93.226562 150.015625 -93.53125 L 150.015625 -93.984375 L 148.203125 -94.890625 C 147.003906 -94.285156 146.40625 -93.679688 146.40625 -93.078125 Z M 181.640625 -90.375 C 182.242188 -90.375 182.769531 -90.597656 183.21875 -91.046875 C 183.675781 -91.503906 183.90625 -91.878906 183.90625 -92.171875 C 182.695312 -92.171875 181.941406 -91.570312 181.640625 -90.375 Z M 22.59375 -79.078125 L 22.59375 -80.4375 L 21.6875 -80.4375 L 21.6875 -79.078125 Z M 63.71875 -73.203125 C 65.519531 -74.109375 66.421875 -75.007812 66.421875 -75.90625 C 66.421875 -77.113281 65.664062 -77.867188 64.15625 -78.171875 L 63.265625 -77.71875 L 62.8125 -76.359375 L 63.265625 -75.015625 Z M 145.5 -75.453125 C 146.101562 -75.160156 146.859375 -75.015625 147.765625 -75.015625 C 148.054688 -75.304688 148.503906 -75.453125 149.109375 -75.453125 L 149.109375 -76.8125 L 147.3125 -76.8125 C 146.101562 -76.207031 145.5 -75.753906 145.5 -75.453125 Z M 22.59375 -76.359375 L 21.6875 -75.90625 L 22.59375 -75.453125 L 23.5 -75.90625 Z M 187.0625 -75.015625 C 186.46875 -74.710938 186.320312 -74.410156 186.625 -74.109375 L 187.0625 -73.203125 L 188.875 -74.109375 L 188.875 -74.5625 C 188.875 -74.5625 188.796875 -74.632812 188.640625 -74.78125 C 188.492188 -74.9375 188.421875 -75.015625 188.421875 -75.015625 L 187.96875 -75.453125 C 187.664062 -75.453125 187.515625 -75.304688 187.515625 -75.015625 Z M 182.546875 -70.484375 C 181.941406 -71.085938 181.492188 -71.390625 181.203125 -71.390625 C 181.203125 -69.585938 181.347656 -68.382812 181.640625 -67.78125 L 181.640625 -66.421875 C 181.941406 -66.722656 182.695312 -66.875 183.90625 -66.875 L 183.90625 -69.140625 Z M 34.34375 -68.234375 C 34.945312 -68.234375 35.25 -68.6875 35.25 -69.59375 L 34.34375 -70.03125 L 32.078125 -70.03125 C 32.078125 -69.132812 32.226562 -68.6875 32.53125 -68.6875 C 33.4375 -68.6875 34.039062 -68.535156 34.34375 -68.234375 Z M 63.265625 -67.328125 C 63.859375 -67.328125 63.859375 -67.628906 63.265625 -68.234375 C 62.660156 -68.835938 62.359375 -69.140625 62.359375 -69.140625 C 62.359375 -68.535156 62.054688 -68.082031 61.453125 -67.78125 C 61.453125 -67.476562 61.753906 -67.328125 62.359375 -67.328125 Z M 203.34375 -65.515625 C 202.738281 -66.117188 202.4375 -66.421875 202.4375 -66.421875 C 201.832031 -67.023438 201.378906 -67.328125 201.078125 -67.328125 L 199.265625 -66.421875 C 199.265625 -66.421875 199.1875 -66.34375 199.03125 -66.1875 C 198.882812 -66.039062 198.8125 -65.96875 198.8125 -65.96875 L 198.359375 -65.96875 L 197.015625 -66.421875 C 197.015625 -67.023438 197.164062 -67.476562 197.46875 -67.78125 L 197.921875 -68.234375 C 197.921875 -68.234375 197.992188 -68.304688 198.140625 -68.453125 C 198.285156 -68.609375 198.359375 -68.6875 198.359375 -68.6875 L 197.015625 -68.6875 C 196.410156 -68.988281 195.878906 -69.0625 195.421875 -68.90625 C 194.972656 -68.757812 194.445312 -68.6875 193.84375 -68.6875 L 194.75 -65.96875 C 194.75 -65.664062 194.820312 -65.285156 194.96875 -64.828125 C 195.125 -64.378906 195.503906 -63.859375 196.109375 -63.265625 C 197.015625 -63.265625 197.46875 -63.414062 197.46875 -63.71875 L 199.265625 -63.71875 C 200.773438 -63.71875 201.832031 -63.566406 202.4375 -63.265625 Z M 49.25 -65.0625 C 50.15625 -65.0625 51.132812 -65.4375 52.1875 -66.1875 C 53.238281 -66.945312 54.066406 -67.78125 54.671875 -68.6875 L 53.765625 -68.234375 C 53.765625 -67.929688 53.164062 -67.78125 51.96875 -67.78125 C 51.363281 -67.78125 51.0625 -67.929688 51.0625 -68.234375 L 49.25 -68.6875 C 47.75 -68.6875 46.695312 -67.78125 46.09375 -65.96875 L 47.890625 -65.515625 C 47.890625 -65.210938 48.34375 -65.0625 49.25 -65.0625 Z M 189.78125 -65.96875 L 189.328125 -67.78125 C 187.816406 -67.175781 187.0625 -66.570312 187.0625 -65.96875 L 189.78125 -65.0625 Z M 181.640625 -63.265625 C 181.046875 -61.753906 180.597656 -61 180.296875 -61 C 179.691406 -61.601562 178.9375 -61.753906 178.03125 -61.453125 L 175.328125 -61.453125 C 175.617188 -61.148438 175.835938 -60.769531 175.984375 -60.3125 C 176.140625 -59.863281 176.367188 -59.640625 176.671875 -59.640625 C 177.273438 -59.035156 177.878906 -58.734375 178.484375 -58.734375 C 179.085938 -58.734375 179.539062 -58.882812 179.84375 -59.1875 L 181.640625 -59.640625 L 182.546875 -59.640625 L 183.453125 -60.546875 L 183.453125 -61.90625 Z M 68.234375 -61.90625 C 68.234375 -61.90625 68.15625 -61.976562 68 -62.125 C 67.851562 -62.28125 67.78125 -62.359375 67.78125 -62.359375 L 67.328125 -62.8125 L 66.421875 -61.90625 Z M 161.3125 -61 L 160.40625 -60.546875 L 161.3125 -60.09375 L 162.21875 -60.546875 Z M 46.546875 -53.765625 C 47.441406 -54.367188 47.890625 -54.820312 47.890625 -55.125 C 47.890625 -55.726562 47.289062 -56.332031 46.09375 -56.9375 C 44.882812 -56.9375 43.976562 -57.085938 43.375 -57.390625 C 42.175781 -56.785156 41.578125 -56.03125 41.578125 -55.125 C 41.578125 -54.519531 41.722656 -54.21875 42.015625 -54.21875 C 42.015625 -54.21875 42.085938 -54.140625 42.234375 -53.984375 C 42.390625 -53.835938 42.46875 -53.765625 42.46875 -53.765625 Z M 187.0625 -52.421875 C 188.570312 -51.515625 189.78125 -51.0625 190.6875 -51.0625 C 191.59375 -51.0625 192.191406 -51.210938 192.484375 -51.515625 C 192.484375 -52.117188 192.632812 -52.421875 192.9375 -52.421875 C 192.34375 -53.015625 191.59375 -53.3125 190.6875 -53.3125 L 188.875 -54.21875 Z M 22.59375 -50.15625 L 22.59375 -52.421875 L 21.6875 -52.421875 L 21.6875 -50.15625 Z M 73.65625 -51.0625 L 73.65625 -50.15625 L 75.90625 -50.15625 L 75.90625 -51.0625 Z M 169.90625 -50.609375 C 169.90625 -49.097656 170.957031 -48.34375 173.0625 -48.34375 C 172.15625 -48.945312 171.703125 -49.398438 171.703125 -49.703125 Z M 179.390625 -42.921875 C 179.390625 -42.921875 179.085938 -43.828125 178.484375 -45.640625 C 178.179688 -45.941406 178.03125 -46.539062 178.03125 -47.4375 C 178.03125 -47.144531 177.800781 -46.46875 177.34375 -45.40625 C 176.894531 -44.351562 176.820312 -43.523438 177.125 -42.921875 Z M 145.046875 -45.1875 L 145.5 -45.1875 L 147.3125 -45.640625 C 147.3125 -46.242188 146.707031 -46.546875 145.5 -46.546875 L 145.046875 -46.546875 L 144.59375 -46.09375 L 145.046875 -45.640625 Z M 16.265625 -44.734375 C 13.859375 -45.335938 12.203125 -45.640625 11.296875 -45.640625 C 10.390625 -45.640625 9.9375 -45.1875 9.9375 -44.28125 C 10.84375 -43.070312 12.5 -42.46875 14.90625 -42.46875 L 16.265625 -42.921875 Z M 194.75 -37.046875 C 195.65625 -37.648438 196.109375 -38.253906 196.109375 -38.859375 L 195.203125 -40.671875 C 194.597656 -40.066406 194.144531 -39.765625 193.84375 -39.765625 L 192.484375 -38.859375 C 190.679688 -37.953125 189.78125 -37.195312 189.78125 -36.59375 C 190.988281 -36.59375 191.59375 -36.445312 191.59375 -36.15625 C 191.289062 -35.851562 191.441406 -35.25 192.046875 -34.34375 L 192.9375 -34.34375 C 192.9375 -34.644531 193.238281 -34.796875 193.84375 -34.796875 C 193.238281 -35.703125 193.539062 -36.453125 194.75 -37.046875 Z M 23.5 -35.25 L 22.140625 -35.25 L 22.140625 -30.28125 C 22.140625 -31.175781 22.289062 -31.925781 22.59375 -32.53125 C 22.59375 -33.132812 22.742188 -33.585938 23.046875 -33.890625 Z M 155.4375 -33.890625 C 154.832031 -32.984375 155.285156 -32.53125 156.796875 -32.53125 L 157.703125 -33.4375 Z M 189.78125 -26.65625 L 191.140625 -28.015625 C 190.535156 -28.015625 190.234375 -28.316406 190.234375 -28.921875 L 187.96875 -28.921875 C 187.363281 -28.921875 187.0625 -28.617188 187.0625 -28.015625 C 187.363281 -27.410156 187.816406 -27.109375 188.421875 -27.109375 Z M 198.8125 -27.5625 L 198.8125 -25.296875 L 199.71875 -25.296875 L 199.71875 -27.5625 Z M 147.3125 -24.40625 C 146.101562 -25 145.195312 -25.296875 144.59375 -25.296875 L 142.78125 -25.75 C 141.882812 -25.445312 141.507812 -24.992188 141.65625 -24.390625 C 141.8125 -23.796875 142.1875 -23.5 142.78125 -23.5 Z M 147.3125 -17.171875 C 149.113281 -18.378906 150.46875 -18.984375 151.375 -18.984375 C 152.875 -19.285156 154.226562 -20.1875 155.4375 -21.6875 L 155.4375 -22.59375 L 154.984375 -22.59375 C 154.378906 -22.59375 153.925781 -22.441406 153.625 -22.140625 L 151.828125 -21.6875 L 149.109375 -22.59375 C 148.210938 -22.289062 147.535156 -21.460938 147.078125 -20.109375 C 146.628906 -18.753906 146.707031 -17.773438 147.3125 -17.171875 Z M 187.0625 -15.8125 C 186.164062 -16.414062 185.71875 -16.71875 185.71875 -16.71875 L 184.359375 -16.71875 L 184.359375 -15.359375 Z M 196.109375 -14.453125 C 195.804688 -14.453125 195.050781 -14.753906 193.84375 -15.359375 C 193.539062 -15.660156 192.941406 -15.8125 192.046875 -15.8125 C 191.441406 -15.8125 191.140625 -15.660156 191.140625 -15.359375 C 191.140625 -15.359375 191.0625 -15.28125 190.90625 -15.125 C 190.757812 -14.976562 190.6875 -14.90625 190.6875 -14.90625 L 190.6875 -13.5625 L 191.140625 -12.65625 L 191.59375 -12.203125 L 196.109375 -13.5625 Z M 159.046875 -10.390625 C 159.347656 -10.390625 159.953125 -11.144531 160.859375 -12.65625 C 158.453125 -12.65625 156.34375 -13.554688 154.53125 -15.359375 C 153.632812 -14.453125 153.1875 -13.703125 153.1875 -13.109375 C 153.1875 -12.503906 153.632812 -11.898438 154.53125 -11.296875 C 155.4375 -10.691406 156.34375 -10.390625 157.25 -10.390625 Z M 159.046875 -10.390625 "/></g></g></g></svg>